P2
# Imagen segmentada
5 5
255
100 100 100 200 200 
100 100 100 200 200 
100 100 100 200 200 
100 100 100 200 200 
100 100 100 200 200 
