P2
# Imagen generada automáticamente
5 5
255
63 135 132 9 89
239 220 171 93 229
75 40 169 98 116
42 191 48 247 5
129 217 76 241 255
