P2
# Imagen generada automáticamente
50 50
255
191 106 232 252 200 151 188 247 214 97 57 13 73 253 231 60 178 6 98 220 12 80 6 135 168 82 177 56 43 163 21 120 242 214 63 47 19 51 156 145 192 103 166 201 185 218 30 24 184 7
38 150 170 62 134 155 239 239 223 109 251 174 11 29 159 114 8 242 139 231 32 253 55 25 191 88 165 219 9 89 186 34 140 80 138 95 107 57 165 23 121 217 51 226 253 168 57 149 150 93
158 121 15 42 147 99 37 85 42 149 35 139 75 22 128 132 54 54 46 107 123 85 53 11 53 140 251 184 95 179 164 206 229 174 146 193 49 11 92 102 213 163 101 240 150 163 19 186 206 197
53 21 93 146 63 22 189 114 94 138 186 90 70 241 38 172 18 123 177 124 15 138 4 142 199 78 189 215 214 61 224 52 210 186 70 105 179 55 189 193 224 7 164 47 106 140 222 199 22 98
227 178 155 51 45 219 94 108 157 0 123 194 213 55 232 123 30 253 236 52 233 25 134 117 62 252 209 226 24 56 0 138 19 71 131 234 33 177 200 4 32 83 40 202 219 82 227 87 112 50
134 98 61 89 194 164 174 14 163 209 93 133 2 69 221 75 29 4 180 119 178 146 23 26 11 230 90 218 78 2 207 218 135 10 8 205 178 140 62 106 96 244 159 165 15 60 116 243 121 75
132 79 23 8 51 134 31 16 141 187 88 110 154 62 144 159 156 12 166 196 74 68 113 248 255 84 221 110 102 116 139 107 248 228 170 219 153 18 98 202 204 109 57 34 6 29 93 2 91 10
253 97 236 105 250 98 244 127 35 235 151 114 160 7 251 180 153 244 116 212 188 71 235 79 192 177 53 255 241 33 55 216 125 40 249 24 110 253 239 57 41 242 236 48 119 74 47 11 9 41
20 58 249 49 183 11 217 48 162 198 166 207 200 78 110 147 116 147 123 78 56 120 121 44 38 49 68 62 171 238 70 134 9 127 228 122 227 163 42 40 249 216 65 191 60 218 130 206 215 244
172 156 64 174 220 222 61 145 1 83 72 174 108 32 189 2 44 66 126 152 69 48 55 172 120 207 221 45 205 31 142 101 22 198 246 155 124 22 218 195 58 96 216 137 112 202 208 119 186 110
217 239 118 39 89 215 137 44 46 88 248 116 105 123 93 137 9 49 25 5 186 18 120 41 120 201 225 101 69 75 99 12 20 25 187 7 230 62 120 103 164 8 249 51 111 44 49 228 84 108
205 218 181 199 124 149 16 75 48 238 76 74 147 202 102 91 126 167 130 60 168 5 53 64 71 109 161 116 127 224 66 243 115 7 221 44 51 189 187 1 216 206 163 53 77 228 149 25 203 29
88 27 4 146 134 196 155 10 156 56 202 35 166 240 88 128 194 254 112 36 108 244 153 37 173 75 117 3 200 97 249 131 164 84 126 207 177 184 7 111 20 219 130 80 21 24 238 38 37 223
19 37 50 247 220 70 93 187 55 254 69 211 234 146 84 224 210 211 22 175 220 53 42 207 179 0 48 193 164 102 212 138 137 46 198 47 217 37 9 15 198 164 24 17 228 80 240 16 155 180
1 207 125 218 101 135 169 106 155 69 59 92 152 78 73 60 172 147 88 42 221 212 185 251 168 205 182 22 74 148 29 79 10 203 40 28 216 45 83 196 188 151 200 111 131 22 55 198 225 4
217 132 40 51 168 179 207 136 177 68 35 141 208 154 121 59 52 110 114 34 235 247 17 137 55 163 156 86 188 157 228 46 38 252 171 218 233 241 135 2 113 123 130 81 199 147 218 142 215 43
252 51 26 138 81 98 210 245 25 65 108 65 129 28 239 239 87 53 82 32 59 136 208 25 89 222 99 183 30 109 210 142 168 205 11 133 178 215 25 21 200 176 235 151 181 104 138 239 108 120
142 230 36 185 250 228 32 126 100 67 54 56 88 58 135 172 108 0 94 103 197 51 177 143 42 116 79 113 130 62 76 79 212 137 165 163 50 26 40 37 189 5 114 130 213 167 229 150 179 141
110 17 49 5 14 42 147 53 250 245 161 60 142 60 126 150 41 156 163 78 33 18 33 159 19 165 210 235 207 76 87 104 165 97 71 152 179 231 17 83 111 157 101 142 121 4 223 127 239 204
125 141 169 16 49 55 160 49 124 226 109 39 91 50 205 27 3 101 159 140 100 44 134 90 86 228 138 183 59 95 67 1 138 208 86 94 84 29 159 150 236 5 38 87 110 112 74 173 223 41
172 251 214 117 198 61 206 201 49 31 190 11 146 68 8 167 10 123 99 214 76 25 195 126 235 42 194 178 245 22 195 166 201 141 211 248 153 54 53 151 33 167 94 15 104 242 105 82 117 61
90 96 98 142 63 239 26 23 14 31 231 49 5 51 254 232 145 191 204 194 110 155 203 231 212 69 232 68 179 88 117 210 49 117 202 147 210 155 249 55 70 187 195 175 62 181 242 200 249 37
124 160 148 190 224 158 104 148 202 125 190 216 184 152 173 236 46 5 255 16 194 130 13 235 160 245 95 204 174 78 100 45 38 80 166 103 85 174 26 136 59 52 13 59 20 14 69 155 225 250
207 118 71 62 13 84 214 104 86 208 13 29 153 30 37 156 194 46 105 169 135 131 8 241 135 4 249 122 46 165 118 122 202 62 49 232 56 140 68 202 246 16 153 134 177 14 15 39 28 178
225 112 166 173 234 96 179 11 130 13 44 225 233 56 67 28 31 176 196 64 156 124 203 20 71 33 171 209 57 58 34 155 201 41 15 154 135 9 120 193 182 149 55 4 7 193 229 201 73 177
237 128 185 182 196 147 233 48 134 103 108 129 194 10 101 16 119 92 107 144 62 130 103 169 205 112 155 53 219 177 220 218 33 232 140 234 17 239 197 144 142 200 12 107 205 158 21 239 208 191
244 29 185 148 2 144 96 6 18 12 230 97 63 24 133 233 39 99 120 52 248 133 204 148 95 71 225 136 28 126 187 218 105 125 57 195 93 151 176 96 240 158 17 147 46 221 1 168 155 106
25 124 21 171 207 137 52 7 226 107 148 57 5 158 155 189 247 179 195 149 250 91 243 252 207 37 76 26 116 46 254 142 7 173 37 80 179 87 108 102 40 35 31 242 97 72 148 177 100 244
87 145 153 45 19 222 80 27 1 110 29 211 213 17 94 253 38 231 184 161 136 95 24 77 105 201 41 240 243 219 208 181 177 170 171 40 103 193 255 231 216 94 68 129 155 173 48 96 171 235
189 51 140 26 124 6 47 127 79 6 162 25 50 10 150 105 37 55 32 47 45 253 218 216 63 230 229 209 39 228 169 60 181 42 119 56 164 199 141 207 74 151 78 160 220 58 181 169 148 188
251 207 68 167 33 213 246 52 19 84 242 64 102 212 47 243 71 6 110 126 159 227 1 60 1 192 163 121 130 81 163 104 234 138 67 234 205 172 213 18 81 17 231 153 80 60 182 72 238 47
44 118 138 58 227 18 108 225 188 75 131 21 134 180 198 13 234 241 192 225 77 48 99 9 59 132 173 223 211 37 124 174 52 128 159 98 74 16 240 112 170 219 123 113 37 206 112 234 18 152
209 248 152 179 152 17 54 215 163 129 149 62 57 220 168 109 183 187 213 49 132 62 34 200 210 164 3 7 138 197 144 160 250 128 130 151 42 40 31 75 1 139 100 127 64 8 142 159 26 56
171 245 7 207 201 136 194 101 196 233 182 47 254 221 0 205 180 161 138 186 11 125 140 210 28 46 239 39 237 24 41 174 152 125 150 90 195 205 120 33 84 200 96 0 169 129 24 115 192 65
188 193 89 164 113 68 179 28 184 139 175 160 155 133 73 170 168 140 161 119 229 47 33 3 64 85 129 132 35 223 17 134 166 55 32 84 254 163 97 97 153 83 88 130 76 33 54 18 193 131
100 178 82 82 230 11 180 104 129 96 188 46 184 241 255 40 45 188 175 96 210 215 50 179 59 182 153 247 161 52 149 255 136 66 116 216 81 91 118 212 39 248 22 183 3 116 48 17 130 98
50 158 190 52 240 168 226 38 207 149 92 236 146 115 143 242 41 251 209 10 96 250 54 150 116 19 28 41 251 167 197 116 41 249 215 60 164 30 197 27 93 156 103 176 79 18 7 88 60 249
58 239 144 253 55 136 136 78 92 235 219 189 140 164 210 248 2 117 155 12 125 225 4 30 188 76 133 39 4 91 187 116 11 81 146 176 204 152 50 1 149 190 90 196 249 43 76 178 148 140
191 8 22 167 120 203 217 132 232 182 12 49 219 71 109 149 10 36 75 65 65 151 181 59 40 229 62 155 4 138 116 111 177 71 195 184 92 179 10 15 146 160 111 1 124 43 45 235 163 48
190 150 61 44 0 96 34 188 74 206 251 139 186 126 0 98 168 60 102 174 200 90 247 82 195 95 65 27 80 22 194 85 201 19 5 2 62 41 71 252 121 228 186 125 45 44 146 168 84 232
101 185 254 37 224 221 234 165 24 48 122 92 3 43 32 251 84 203 246 59 146 63 252 38 111 76 54 207 213 76 171 205 58 151 87 164 18 203 36 157 59 164 170 125 242 96 113 82 186 221
81 208 88 33 189 0 46 236 4 91 207 236 59 184 213 86 70 129 247 224 211 209 225 27 122 241 191 61 83 183 164 77 243 11 41 84 79 24 77 210 194 244 85 22 170 246 191 35 247 189
75 1 213 179 234 15 2 253 87 142 80 71 247 120 90 140 63 151 111 75 20 34 111 137 33 205 185 86 128 136 53 227 253 211 70 88 190 7 201 91 152 76 118 191 189 38 19 177 130 203
40 128 27 107 238 200 2 63 212 220 19 30 218 29 202 6 114 90 13 128 93 174 163 114 183 221 86 11 249 61 198 57 194 195 151 232 103 82 54 105 182 34 167 46 39 225 85 77 188 43
48 214 237 175 142 184 2 184 79 237 87 14 225 187 239 167 113 224 114 231 204 51 168 248 136 237 79 183 12 180 208 100 49 49 37 227 114 197 219 146 246 158 211 111 25 231 157 254 124 201
13 148 187 163 135 65 99 156 107 48 237 60 254 120 196 143 16 40 103 230 244 211 139 115 23 109 104 75 213 228 18 53 85 224 216 3 2 117 225 87 139 0 17 155 84 246 196 49 28 154
2 114 203 211 243 61 229 8 24 187 53 129 11 142 89 100 98 121 94 10 54 203 177 241 160 218 146 217 80 245 104 217 183 58 34 70 34 230 63 208 93 89 8 139 198 156 193 38 129 242
204 176 173 97 181 231 185 1 45 133 24 62 120 44 106 87 240 237 84 66 245 6 96 68 25 241 4 83 20 164 97 13 229 29 185 134 131 92 116 39 251 141 202 74 95 66 112 199 105 241
158 147 63 122 128 91 37 162 53 25 221 217 222 32 169 66 201 189 124 95 195 134 243 210 236 9 170 253 160 129 92 108 183 145 146 134 134 29 47 215 78 141 252 233 106 13 178 239 83 46
13 231 7 242 7 203 200 130 50 120 177 99 189 118 232 236 19 33 189 55 33 17 252 77 187 189 145 223 96 45 66 201 56 37 188 234 49 232 121 35 154 111 96 224 152 224 202 1 15 236
